<svg width="23" height="24" viewBox="0 0 23 24" fill="none" xmlns="http://www.w3.org/2000/svg">
<path fill-rule="evenodd" clip-rule="evenodd" d="M11.5 23.5C5.14878 23.5 0 18.3512 0 12C0 5.64872 5.14878 0.5 11.5 0.5C17.8513 0.5 23 5.64872 23 12C23 18.3512 17.8513 23.5 11.5 23.5ZM10.6375 8.55C10.6375 8.07366 11.0237 7.6875 11.5 7.6875C11.9763 7.6875 12.3625 8.07366 12.3625 8.55V11.1375H14.95C15.4263 11.1375 15.8125 11.5237 15.8125 12C15.8125 12.4763 15.4263 12.8625 14.95 12.8625H12.3625V15.45C12.3625 15.9263 11.9763 16.3125 11.5 16.3125C11.0237 16.3125 10.6375 15.9263 10.6375 15.45V12.8625H8.05C7.57367 12.8625 7.1875 12.4763 7.1875 12C7.1875 11.5237 7.57367 11.1375 8.05 11.1375H10.6375V8.55Z" fill="#39C542"/>
</svg>
