<svg width="23" height="23" viewBox="0 0 23 23" fill="none" xmlns="http://www.w3.org/2000/svg">
<path fill-rule="evenodd" clip-rule="evenodd" d="M11.5 23C5.14878 23 0 17.8512 0 11.5C0 5.14872 5.14878 0 11.5 0C17.8513 0 23 5.14872 23 11.5C23 17.8512 17.8513 23 11.5 23ZM10.6375 8.05C10.6375 7.57366 11.0237 7.1875 11.5 7.1875C11.9763 7.1875 12.3625 7.57366 12.3625 8.05V10.6375H14.95C15.4263 10.6375 15.8125 11.0237 15.8125 11.5C15.8125 11.9763 15.4263 12.3625 14.95 12.3625H12.3625V14.95C12.3625 15.4263 11.9763 15.8125 11.5 15.8125C11.0237 15.8125 10.6375 15.4263 10.6375 14.95V12.3625H8.05C7.57367 12.3625 7.1875 11.9763 7.1875 11.5C7.1875 11.0237 7.57367 10.6375 8.05 10.6375H10.6375V8.05Z" fill="white"/>
</svg>
