<svg width="24" height="24" viewBox="0 0 24 24" fill="none" xmlns="http://www.w3.org/2000/svg">
<path fill-rule="evenodd" clip-rule="evenodd" d="M24 12C24 18.6274 18.6274 24 12 24C5.37258 24 0 18.6274 0 12C0 5.37258 5.37258 0 12 0C18.6274 0 24 5.37258 24 12ZM8.36356 8.36358C8.71502 8.01211 9.28487 8.01211 9.63636 8.36358L12 10.7272L14.3635 8.3636C14.715 8.01214 15.2849 8.01214 15.6364 8.3636C15.9878 8.71507 15.9878 9.28493 15.6364 9.63636L13.2727 12L15.6364 14.3635C15.9878 14.715 15.9878 15.2849 15.6364 15.6364C15.2849 15.9878 14.715 15.9878 14.3635 15.6364L12 13.2728L9.63636 15.6364C9.2849 15.9878 8.71505 15.9878 8.36358 15.6364C8.01211 15.2849 8.01211 14.715 8.36358 14.3636L10.7272 12L8.36356 9.63636C8.01208 9.2849 8.01208 8.71505 8.36356 8.36358Z" fill="#FC7452"/>
</svg>
