<svg width="35" height="36" viewBox="0 0 35 36" fill="none" xmlns="http://www.w3.org/2000/svg">
<path fill-rule="evenodd" clip-rule="evenodd" d="M35 18C35 27.665 27.165 35.5 17.5 35.5C7.83502 35.5 0 27.665 0 18C0 8.33502 7.83502 0.5 17.5 0.5C27.165 0.5 35 8.33502 35 18ZM13.9606 25.6508L15.4982 27.0227L16.8235 25.4448L27.4905 12.7457C28.2009 11.8999 28.0912 10.6383 27.2454 9.92789C26.3996 9.21745 25.1381 9.32717 24.4276 10.173L15.086 21.2943L10.36 17.0778C9.5358 16.3424 8.27152 16.4145 7.53616 17.2387C6.8008 18.0629 6.87283 19.3272 7.69704 20.0625L13.9606 25.6508Z" fill="#6FD541"/>
</svg>
