<svg width="22" height="22" viewBox="0 0 22 22" fill="none" xmlns="http://www.w3.org/2000/svg">
<path d="M22 11C22 13.1756 21.3549 15.3023 20.1462 17.1113C18.9375 18.9202 17.2195 20.3301 15.2095 21.1627C13.1995 21.9952 10.9878 22.2131 8.85401 21.7886C6.72022 21.3642 4.76021 20.3165 3.22183 18.7782C1.68345 17.2398 0.635804 15.2798 0.211367 13.146C-0.213071 11.0122 0.00476609 8.80047 0.83733 6.79048C1.66989 4.78049 3.07979 3.06253 4.88873 1.85383C6.69767 0.645138 8.82441 0 11 0C13.9174 0 16.7153 1.15893 18.7782 3.22182C20.8411 5.28472 22 8.08262 22 11ZM17.9163 11.0082C17.9163 9.64034 17.5106 8.30316 16.7507 7.16579C15.9907 6.02841 14.9105 5.14194 13.6467 4.61847C12.383 4.09499 10.9923 3.95803 9.65071 4.22489C8.30909 4.49176 7.07673 5.15047 6.10948 6.11772C5.14222 7.08498 4.48351 8.31733 4.21665 9.65895C3.94978 11.0006 4.08675 12.3912 4.61022 13.655C5.1337 14.9188 6.02017 15.9989 7.15754 16.7589C8.29491 17.5189 9.6321 17.9245 11 17.9245C11.9083 17.9245 12.8076 17.7456 13.6467 17.398C14.4859 17.0505 15.2483 16.541 15.8905 15.8988C16.5328 15.2565 17.0422 14.4941 17.3898 13.655C17.7374 12.8159 17.9163 11.9165 17.9163 11.0082ZM7.76463 10.4582H5.20988C5.30982 9.41314 5.69033 8.41447 6.31115 7.56782C6.93198 6.72118 7.77005 6.05803 8.73675 5.6485C8.82842 5.61 8.92009 5.57379 9.01175 5.53987C8.20363 7.05405 7.77564 8.74195 7.76463 10.4582ZM7.76463 11.5582C7.77595 13.2747 8.20443 14.9626 9.01313 16.4766C8.91963 16.4427 8.8275 16.4065 8.73675 16.368C7.76902 15.96 6.93 15.2972 6.30896 14.4503C5.68792 13.6033 5.30809 12.6039 5.20988 11.5582H7.76463ZM8.86463 10.4582C8.88898 9.8108 8.96392 9.16626 9.08875 8.5305C9.21365 7.85969 9.41909 7.20642 9.70063 6.58487C10.098 5.73925 10.6081 5.192 11 5.192C11.3919 5.192 11.902 5.73925 12.2994 6.58487C12.5807 7.2065 12.7861 7.85974 12.9113 8.5305C13.0359 9.16629 13.1108 9.81082 13.1354 10.4582H8.86463ZM13.1354 11.5582C13.1108 12.2057 13.0359 12.8502 12.9113 13.486C12.7861 14.1567 12.5806 14.81 12.2994 15.4316C11.902 16.2786 11.3919 16.8245 11 16.8245C10.6081 16.8245 10.098 16.2786 9.70063 15.4316C9.4192 14.81 9.21375 14.1568 9.08875 13.486C8.9639 12.8502 8.88896 12.2057 8.86463 11.5582H13.1354ZM15.1126 6.89562C16.0708 7.85071 16.6644 9.11119 16.7901 10.4582H14.2354C14.2242 8.74181 13.7957 7.05385 12.9869 5.53987C13.0804 5.57379 13.1725 5.61046 13.2633 5.64987C13.9547 5.94129 14.5828 6.36439 15.1126 6.89562ZM14.2354 11.5582H16.7901C16.69 12.6033 16.3095 13.6019 15.6887 14.4485C15.0679 15.2952 14.2299 15.9583 13.2633 16.368C13.1716 16.4074 13.0799 16.4441 12.9883 16.478C13.7968 14.9635 14.2249 13.275 14.2354 11.5582Z" fill="#4689B8"/>
</svg>
