<svg width="20" height="20" viewBox="0 0 20 20" fill="none" xmlns="http://www.w3.org/2000/svg">
<path d="M12 8V20H2C1.46957 20 0.960859 19.7893 0.585786 19.4142C0.210713 19.0391 0 18.5304 0 18V8H12Z" fill="#FFAB24"/>
<path d="M20 8V18C20 18.5304 19.7893 19.0391 19.4142 19.4142C19.0391 19.7893 18.5304 20 18 20H14V8H20Z" fill="#FFAB24"/>
<path d="M20 2V6H0V2C0 1.46957 0.210713 0.960859 0.585786 0.585786C0.960858 0.210713 1.46957 0 2 0H18C18.5304 0 19.0391 0.210713 19.4142 0.585786C19.7893 0.960859 20 1.46957 20 2Z" fill="#FFAB24"/>
</svg>
