<svg width="68" height="49" viewBox="0 0 68 49" fill="none" xmlns="http://www.w3.org/2000/svg">
<g clip-path="url(#clip0_969_628)">
<path fill-rule="evenodd" clip-rule="evenodd" d="M66.4413 41.2717H40.7978V12.6288H56.3636L68 27.4936C68 31.5575 68 35.6214 68 39.6744C67.9026 40.924 67.2748 41.2608 66.4413 41.2608V41.2717ZM54.242 18.3987H44.5323V24.9944H59.2537L54.242 18.3987Z" fill="#7865BC"/>
<path fill-rule="evenodd" clip-rule="evenodd" d="M2.68466 41.2717H40.9062V3.78389C40.9062 1.98013 39.4341 0.50235 37.6372 0.50235H3.45321C1.55891 0.50235 0.0109919 2.05619 0.0109919 3.95775V38.5878C0.0109919 40.0656 1.21252 41.2717 2.68466 41.2717Z" fill="#7865BC"/>
<path d="M53.3001 48.4976C49.5995 48.4976 46.5997 45.4863 46.5997 41.7715C46.5997 38.0568 49.5995 35.0455 53.3001 35.0455C57.0006 35.0455 60.0005 38.0568 60.0005 41.7715C60.0005 45.4863 57.0006 48.4976 53.3001 48.4976Z" fill="#7865BC"/>
<path d="M16.4319 48.4976C12.7314 48.4976 9.73149 45.4863 9.73149 41.7715C9.73149 38.0568 12.7314 35.0455 16.4319 35.0455C20.1324 35.0455 23.1323 38.0568 23.1323 41.7715C23.1323 45.4863 20.1324 48.4976 16.4319 48.4976Z" fill="#7865BC"/>
</g>
<defs>
<clipPath id="clip0_969_628">
<rect width="68" height="48" fill="white" transform="matrix(-1 0 0 1 68 0.5)"/>
</clipPath>
</defs>
</svg>
