<svg width="42" height="30" viewBox="0 0 42 30" fill="none" xmlns="http://www.w3.org/2000/svg">
<g clip-path="url(#clip0_967_8)">
<path fill-rule="evenodd" clip-rule="evenodd" d="M41.0372 25.4823H25.1987V7.58054H34.8128L42 16.871C42 19.4109 42 21.9509 42 24.484C41.9398 25.265 41.5521 25.4755 41.0372 25.4755V25.4823ZM33.5024 11.1867H27.5053V15.309H36.5979L33.5024 11.1867Z" fill="#FE7E47"/>
<path fill-rule="evenodd" clip-rule="evenodd" d="M1.65818 25.4823H25.2656V2.05243C25.2656 0.925078 24.3564 0.00146484 23.2465 0.00146484H2.13287C0.962856 0.00146484 0.00679068 0.972617 0.00679068 2.16109V23.8049C0.00679068 24.7285 0.748912 25.4823 1.65818 25.4823Z" fill="#FE7E47"/>
<path d="M32.9208 29.9985C30.6352 29.9985 28.7823 28.1164 28.7823 25.7947C28.7823 23.473 30.6352 21.5909 32.9208 21.5909C35.2065 21.5909 37.0593 23.473 37.0593 25.7947C37.0593 28.1164 35.2065 29.9985 32.9208 29.9985Z" fill="#FE7E47"/>
<path d="M10.1491 29.9985C7.86348 29.9985 6.01062 28.1164 6.01062 25.7947C6.01062 23.473 7.86348 21.5909 10.1491 21.5909C12.4347 21.5909 14.2876 23.473 14.2876 25.7947C14.2876 28.1164 12.4347 29.9985 10.1491 29.9985Z" fill="#FE7E47"/>
</g>
<defs>
<clipPath id="clip0_967_8">
<rect width="42" height="30" fill="white" transform="matrix(-1 0 0 1 42 0)"/>
</clipPath>
</defs>
</svg>
