<svg width="50" height="51" viewBox="0 0 50 51" fill="none" xmlns="http://www.w3.org/2000/svg">
<path fill-rule="evenodd" clip-rule="evenodd" d="M25 50.5C38.807 50.5 50 39.307 50 25.5C50 11.6929 38.807 0.5 25 0.5C11.1929 0.5 0 11.6929 0 25.5C0 39.307 11.1929 50.5 25 50.5ZM26.875 10.5C26.875 9.46448 26.0355 8.625 25 8.625C23.9645 8.625 23.125 9.46448 23.125 10.5V11.2918C19.0489 12.0217 15.625 15.084 15.625 19.25C15.625 24.043 20.157 27.375 25 27.375C28.4413 27.375 30.625 29.6393 30.625 31.75C30.625 33.8607 28.4413 36.125 25 36.125C21.5587 36.125 19.375 33.8607 19.375 31.75C19.375 30.7145 18.5355 29.875 17.5 29.875C16.4645 29.875 15.625 30.7145 15.625 31.75C15.625 35.916 19.0489 38.9783 23.125 39.7083V40.5C23.125 41.5355 23.9645 42.375 25 42.375C26.0355 42.375 26.875 41.5355 26.875 40.5V39.7083C30.951 38.9783 34.375 35.916 34.375 31.75C34.375 26.957 29.843 23.625 25 23.625C21.5587 23.625 19.375 21.3607 19.375 19.25C19.375 17.1393 21.5587 14.875 25 14.875C28.4413 14.875 30.625 17.1393 30.625 19.25C30.625 20.2855 31.4645 21.125 32.5 21.125C33.5355 21.125 34.375 20.2855 34.375 19.25C34.375 15.084 30.951 12.0217 26.875 11.2918V10.5Z" fill="#F99A15"/>
</svg>
