<svg width="20" height="20" viewBox="0 0 20 20" fill="none" xmlns="http://www.w3.org/2000/svg">
<path fill-rule="evenodd" clip-rule="evenodd" d="M15.4286 0.5C17.6772 0.5 19.5 2.32284 19.5 4.57143V15.4286C19.5 17.6772 17.6772 19.5 15.4286 19.5H4.57143C2.32284 19.5 0.5 17.6772 0.5 15.4286V4.57143C0.5 2.32284 2.32284 0.5 4.57143 0.5H15.4286ZM15.1954 4.86249C14.6654 4.33249 13.8061 4.33249 13.2761 4.86249L7.38006 10.7585C7.19266 10.9459 7.03371 11.1598 6.90828 11.3932L5.52916 13.9603C5.46547 14.0788 5.46447 14.2212 5.52649 14.3406C5.63012 14.5402 5.8759 14.6179 6.07545 14.5143L8.49666 13.257C8.80482 13.0969 9.0866 12.8906 9.33214 12.645L15.1954 6.78178C15.7254 6.25178 15.7254 5.39249 15.1954 4.86249Z" fill="#3DA7A2"/>
</svg>
