<svg width="25" height="25" viewBox="0 0 25 25" fill="none" xmlns="http://www.w3.org/2000/svg">
<g clip-path="url(#clip0_999_11)">
<path d="M12.4998 1.04168C10.2336 1.04168 8.01825 1.7137 6.13393 2.97276C4.24962 4.23182 2.78098 6.02137 1.91372 8.1151C1.04647 10.2088 0.819555 12.5127 1.26168 14.7354C1.7038 16.9581 2.7951 18.9998 4.39758 20.6023C6.00005 22.2048 8.04173 23.2961 10.2644 23.7382C12.4871 24.1803 14.791 23.9534 16.8848 23.0861C18.9785 22.2189 20.768 20.7502 22.0271 18.8659C23.2862 16.9816 23.9582 14.7663 23.9582 12.5C23.9651 10.9934 23.6734 9.50026 23.1 8.10696C22.5266 6.71366 21.6829 5.44776 20.6175 4.38238C19.5521 3.317 18.2862 2.47325 16.8929 1.89985C15.4996 1.32646 14.0065 1.03479 12.4998 1.04168ZM18.5936 16.1459C18.4999 16.2985 18.3702 16.4259 18.2158 16.5167C18.0614 16.6075 17.8871 16.659 17.7082 16.6667C17.5234 16.6643 17.343 16.6101 17.1873 16.5104L11.4582 13.0729V7.29168C11.4582 7.01542 11.5679 6.75047 11.7633 6.55512C11.9586 6.35976 12.2236 6.25002 12.4998 6.25002C12.7761 6.25002 13.0411 6.35976 13.2364 6.55512C13.4318 6.75047 13.5415 7.01542 13.5415 7.29168V11.9271L18.229 14.7396C18.3492 14.8042 18.4547 14.8929 18.539 15.0001C18.6233 15.1074 18.6844 15.231 18.7187 15.363C18.7529 15.4951 18.7595 15.6328 18.7379 15.7675C18.7164 15.9022 18.6673 16.031 18.5936 16.1459Z" fill="#FF9933"/>
</g>
<defs>
<clipPath id="clip0_999_11">
<rect width="25" height="25" fill="white"/>
</clipPath>
</defs>
</svg>
