<svg width="23" height="23" viewBox="0 0 23 23" fill="none" xmlns="http://www.w3.org/2000/svg">
<path d="M23 11.5C23 13.7745 22.3255 15.9979 21.0619 17.8891C19.7983 19.7802 18.0022 21.2542 15.9009 22.1246C13.7995 22.995 11.4872 23.2228 9.25647 22.779C7.02568 22.3353 4.97658 21.24 3.36828 19.6317C1.75997 18.0234 0.664704 15.9743 0.220974 13.7435C-0.222756 11.5128 0.00498274 9.20049 0.87539 7.09914C1.7458 4.99779 3.21978 3.20174 5.11095 1.9381C7.00211 0.674463 9.22552 0 11.5 0C13.0102 0 14.5056 0.297456 15.9009 0.875385C17.2961 1.45331 18.5639 2.3004 19.6317 3.36827C20.6996 4.43614 21.5467 5.7039 22.1246 7.09914C22.7025 8.49438 23 9.9898 23 11.5ZM17.9625 5.11886C17.5601 4.71649 16.2034 5.42099 15.8011 5.82335L13.3215 8.30434L13.2997 8.29708L6.36807 6.4131C6.21656 6.38092 6.0596 6.38494 5.90993 6.42481C5.76027 6.46469 5.62211 6.53931 5.5067 6.6426L4.885 7.2643C4.83824 7.30452 4.80236 7.35586 4.78065 7.41359C4.75895 7.47132 4.75212 7.53359 4.7608 7.59465C4.76948 7.65571 4.79339 7.71361 4.83033 7.763C4.86726 7.81239 4.91604 7.8517 4.97215 7.87729L9.58261 10.4265L10.3917 11.2356L8.25351 13.3709C8.03511 13.6158 7.85134 13.8895 7.70734 14.1843L6.14002 13.7094C5.99044 13.6731 5.83429 13.6737 5.685 13.7111C5.53571 13.7486 5.39775 13.8218 5.283 13.9243L5.09126 14.1146C4.99458 14.2113 4.94026 14.3425 4.94026 14.4792C4.94026 14.616 4.99458 14.7471 5.09126 14.8438L6.21846 15.971L6.24025 15.9913L7.09291 16.8455L7.11469 16.8672L8.24044 17.9944C8.33733 18.0908 8.4684 18.1448 8.60503 18.1448C8.74166 18.1448 8.87274 18.0908 8.96963 17.9944L9.16136 17.8027C9.26405 17.688 9.33728 17.5501 9.37474 17.4008C9.41219 17.2514 9.41274 17.0953 9.37635 16.9457L8.8999 15.3769C9.19471 15.2322 9.46839 15.048 9.71334 14.8293L11.8486 12.6926L12.6577 13.5002L15.2041 18.1106C15.2296 18.1668 15.269 18.2155 15.3183 18.2525C15.3677 18.2894 15.4256 18.3133 15.4867 18.322C15.5478 18.3307 15.61 18.3238 15.6678 18.3021C15.7255 18.2804 15.7768 18.2446 15.817 18.1978L16.4387 17.5761C16.5423 17.4605 16.617 17.3221 16.6569 17.1722C16.6968 17.0222 16.7007 16.865 16.6682 16.7133L14.7857 9.78451L14.7785 9.76127L17.258 7.28028C17.6604 6.87792 18.3649 5.52267 17.9625 5.11886Z" fill="#3FD393"/>
</svg>
