<svg width="210" height="69" viewBox="0 0 210 69" fill="none" xmlns="http://www.w3.org/2000/svg">
<g clip-path="url(#clip0_820_309)">
<path fill-rule="evenodd" clip-rule="evenodd" d="M32.1946 0.820755C49.9249 0.820755 64.3867 15.5202 64.3867 33.5443C64.3867 51.5683 49.9249 66.2654 32.1946 66.2654C26.2317 66.2562 20.388 64.5674 15.3123 61.3865C10.2366 58.2057 6.12755 53.6572 3.44139 48.2461H23.2749V51.1157C23.2749 56.9641 27.9992 59.8882 37.4478 59.8882H41.7371C43.1582 59.8882 43.8727 59.1612 43.8806 57.7071C43.8806 56.29 43.1661 55.5814 41.7371 55.5814H36.1404C30.9456 55.5814 28.3482 54.3055 28.3482 51.7537V48.2461H58.3164C59.8164 48.2461 60.5656 47.4485 60.564 45.8532V39.0403C60.564 34.0073 56.6419 31.4908 48.7975 31.4908H37.2915C27.9487 31.4908 23.2765 34.3965 23.2749 40.2079V43.8455H1.64135C0.551908 40.524 -0.00235068 37.0454 7.49321e-06 33.5443C7.49321e-06 15.5202 14.4619 0.820755 32.1946 0.820755ZM28.3482 43.7708H55.6589V39.5796C55.6589 37.0278 53.7058 35.7526 49.7994 35.7542H36.1404C30.9456 35.7542 28.3482 37.1008 28.3482 39.7938V43.7805V43.7708Z" fill="#ACD6F2"/>
<path fill-rule="evenodd" clip-rule="evenodd" d="M203.688 51.265C203.688 57.0074 199.295 59.8786 190.508 59.8786H180.257C171.298 59.8786 166.817 57.0074 166.816 51.265V40.3162C166.816 34.4326 171.348 31.4908 180.413 31.4908H190.508C199.295 31.4908 203.688 34.4141 203.688 40.2609V51.265ZM198.458 39.8372C198.458 37.1088 196.069 35.7446 191.292 35.7446H179.686C174.493 35.7446 171.895 37.2693 171.894 40.3186V51.2674C171.894 54.1402 174.491 55.5758 179.686 55.5742H191.292C196.069 55.5742 198.458 54.1386 198.458 51.2674V39.8372Z" fill="black"/>
<path fill-rule="evenodd" clip-rule="evenodd" d="M164.66 59.4525C164.66 65.1211 160.04 67.9562 150.8 67.9578H146.608C145.144 67.9578 144.412 67.2668 144.412 65.885C144.412 64.4679 145.144 63.7593 146.608 63.7593H151.418C156.894 63.7593 159.631 62.5893 159.63 60.2493V59.8786H142.172C132.305 59.8786 127.371 57.0251 127.371 51.318V40.102C127.371 34.3612 131.871 31.4908 140.872 31.4908H149.971C159.769 31.4908 164.668 34.3796 164.668 40.1573V59.4549L164.66 59.4525ZM159.483 55.5718V40.4751C159.483 37.3215 156.781 35.7446 151.376 35.7446H139.976C134.955 35.7446 132.445 37.1618 132.445 39.996V51.265C132.445 54.1378 135.355 55.5734 141.177 55.5718H159.483Z" fill="black"/>
<path fill-rule="evenodd" clip-rule="evenodd" d="M125.226 27.3982C125.226 29.2054 124.041 30.1089 121.673 30.1089C119.442 30.1089 118.326 29.2054 118.326 27.3982C118.326 25.5911 119.44 24.6875 121.668 24.6875C124.037 24.6875 125.221 25.5911 125.221 27.3982H125.226ZM124.344 57.8564C124.344 59.3811 123.525 60.1434 121.886 60.1434C120.247 60.1434 119.428 59.3811 119.428 57.8564V35.3185C119.428 33.8645 120.212 33.1382 121.782 33.1398C123.49 33.1398 124.344 33.8661 124.344 35.3185V57.8564Z" fill="black"/>
<path fill-rule="evenodd" clip-rule="evenodd" d="M116.382 57.8564C116.382 59.3811 115.527 60.1434 113.819 60.1434C112.145 60.1434 111.308 59.3811 111.308 57.8564V39.7842C111.308 37.0911 108.554 35.7446 103.045 35.7446C96.5252 35.7446 93.2654 37.3568 93.2654 40.581V57.8564C93.2654 59.3811 92.4459 60.1434 90.807 60.1434C89.029 60.1434 88.1401 59.3811 88.1401 57.8564V40.581C88.1401 37.3552 84.8968 35.743 78.4104 35.7446C72.8335 35.7446 70.0442 37.1088 70.0426 39.8372V57.8564C70.0426 59.3811 69.1884 60.1434 67.4799 60.1434C65.8078 60.1434 64.9709 59.3811 64.9694 57.8564V40.4751C64.9694 34.4856 69.4497 31.4908 78.4104 31.4908C85.0011 31.4908 89.168 33.05 90.9112 36.1683C92.6907 33.05 96.7352 31.4908 103.045 31.4908C111.936 31.4908 116.382 34.4856 116.382 40.4751V57.8564Z" fill="black"/>
<path fill-rule="evenodd" clip-rule="evenodd" d="M50.1949 68.1335V66.5254L51.3791 64.3708H50.7633L50.3322 65.2976C50.1949 65.5889 50.067 65.873 49.9604 66.1619H49.9438C49.8325 65.873 49.6951 65.5769 49.5648 65.3145L49.103 64.3756H48.4896L49.6122 66.5422V68.1335H50.1949ZM54.3563 64.325C53.4633 64.325 52.8546 65.0015 52.8546 66.2509C52.8546 67.5004 53.4254 68.1768 54.2757 68.1768C55.126 68.1768 55.7536 67.6352 55.7536 66.222C55.7536 65.0184 55.2326 64.3226 54.3586 64.3226L54.3563 64.325ZM54.3041 64.7054C54.9721 64.7054 55.145 65.5384 55.145 66.2413C55.145 66.9443 54.9721 67.7989 54.3113 67.7989C53.6504 67.7989 53.4633 67.0285 53.4633 66.2533C53.4633 65.4782 53.667 64.7054 54.3041 64.7054ZM57.8568 64.3708V66.8769C57.8568 67.8109 58.3566 68.1792 59.124 68.1792C59.8914 68.1792 60.4266 67.8037 60.4266 66.8263V64.3756H59.844V66.8985C59.844 67.5581 59.5716 67.8037 59.1334 67.8037C58.7403 67.8037 58.4348 67.563 58.4348 66.8985V64.3756L57.8568 64.3708ZM62.7643 68.1335H63.3469V66.4917H63.5838C64.0835 66.4917 64.2943 66.6867 64.4175 67.2018C64.4688 67.5229 64.5604 67.836 64.6899 68.1335H65.282C65.1483 67.8255 65.0521 67.5022 64.9954 67.1706C64.8793 66.6891 64.6828 66.4122 64.3038 66.328C64.8201 66.1546 65.1233 65.8465 65.1233 65.365C65.1281 65.2218 65.0979 65.0796 65.0355 64.951C64.9731 64.8225 64.8804 64.7117 64.7657 64.6284C64.4176 64.4225 64.0161 64.3293 63.6146 64.3611C63.3327 64.3584 63.0512 64.3826 62.7738 64.4334V68.1407L62.7643 68.1335ZM63.3469 64.7222C63.4471 64.7052 63.5486 64.698 63.6501 64.7006C64.2801 64.7006 64.5217 64.9726 64.5217 65.4084C64.5217 65.8441 64.1499 66.1619 63.5909 66.1619H63.3541V64.7174L63.3469 64.7222ZM72.1861 66.1667H70.9734V66.523H71.6318V67.7459C71.5167 67.7808 71.3967 67.7963 71.2766 67.7917C70.6631 67.7917 70.0639 67.4185 70.0639 66.2557C70.0639 65.093 70.7531 64.715 71.3903 64.715C71.5913 64.709 71.7917 64.7391 71.9824 64.8041L72.1103 64.4358C71.8755 64.3589 71.6297 64.3231 71.3832 64.3298C70.4808 64.3298 69.4647 64.833 69.4576 66.2943C69.4373 66.5753 69.4822 66.8572 69.5888 67.1172C69.6953 67.3773 69.8605 67.6084 70.071 67.7917C70.4182 68.0537 70.8447 68.184 71.2766 68.16C71.5839 68.1571 71.8895 68.1142 72.1861 68.0324V66.1619V66.1667ZM76.1438 67.0044L76.4848 68.1311H77.0604L75.9235 64.3756H75.2793L74.1116 68.1383H74.6729L75.014 67.0117L76.1438 67.0044ZM75.0969 66.6578L75.3622 65.6948C75.4309 65.4541 75.5066 65.1195 75.5659 64.8354H75.5967C75.6582 65.1147 75.7269 65.4276 75.8027 65.6948L76.068 66.6578H75.0969ZM79.2654 68.1311H79.8504V64.7608H80.7812V64.3756H78.3322V64.7608H79.2654V68.1311ZM84.6394 65.9813H83.37V64.7415H84.7342V64.3756H82.7873V68.1383H84.8266V67.7652H83.37V66.352H84.6513V65.9885L84.6394 65.9813ZM88.1803 68.1311L88.6872 66.3159C88.8029 65.9049 88.897 65.4878 88.969 65.0665H88.9832C89.0448 65.4782 89.1419 65.9043 89.2414 66.2991L89.734 68.1311H90.3025L91.2972 64.3684H90.7264L90.3025 66.1595C90.2053 66.5856 90.113 66.9972 90.0301 67.5389H90.0017C89.9347 67.0655 89.8358 66.5974 89.7056 66.1378L89.2319 64.3684H88.7322L88.2585 66.1763C88.1301 66.6238 88.0289 67.0788 87.9553 67.5389H87.9245C87.8653 67.0767 87.7824 66.6578 87.6877 66.1835L87.2542 64.3756H86.6479L87.6332 68.1335L88.1803 68.1311ZM94.7599 67.0044L95.101 68.1311H95.686L94.5396 64.3756H93.8954L92.7278 68.1383H93.2891L93.6301 67.0117L94.7599 67.0044ZM93.713 66.6578L93.9783 65.6948C94.047 65.4541 94.1228 65.1195 94.1844 64.8354H94.2128C94.2744 65.1147 94.3431 65.4276 94.4188 65.6948L94.6841 66.6578H93.713ZM98.6702 68.1311V66.523L99.8545 64.3684H99.2387L98.8076 65.2952C98.6702 65.5865 98.5423 65.8706 98.4358 66.1595H98.4192C98.3079 65.8706 98.1705 65.5745 98.0402 65.3121L97.5807 64.3756H96.9649L98.0876 66.5422V68.1335L98.6702 68.1311ZM104.471 68.1311H105.053V64.7608H105.986V64.3756H103.537V64.7608H104.471V68.1311ZM109.025 64.3226C108.13 64.3226 107.524 64.9991 107.524 66.2485C107.524 67.498 108.092 68.1744 108.945 68.1744C109.797 68.1744 110.423 67.6328 110.423 66.2196C110.423 65.0159 109.899 64.3202 109.028 64.3202L109.025 64.3226ZM108.973 64.703C109.639 64.703 109.814 65.5359 109.814 66.2389C109.814 66.9419 109.639 67.7965 108.98 67.7965C108.322 67.7965 108.13 67.0261 108.13 66.2509C108.13 65.4758 108.336 64.703 108.973 64.703ZM114.681 68.0035C114.956 68.1141 115.25 68.1689 115.546 68.1648C116.356 68.1648 116.967 67.758 116.967 67.1104C116.967 66.6915 116.692 66.3448 116.078 66.027C115.605 65.7695 115.328 65.625 115.328 65.2495C115.328 64.9943 115.565 64.715 116.064 64.715C116.273 64.7101 116.481 64.7537 116.671 64.8426L116.815 64.4743C116.591 64.377 116.348 64.3294 116.105 64.3347C115.292 64.3347 114.754 64.7535 114.754 65.3241C114.754 65.8056 115.316 66.1595 115.716 66.3665C116.116 66.5735 116.391 66.8022 116.391 67.1489C116.391 67.4955 116.074 67.7844 115.543 67.7844C115.291 67.7828 115.041 67.7321 114.807 67.6352L114.679 68.0035H114.681ZM119.077 64.3756V66.8817C119.077 67.8157 119.577 68.1841 120.344 68.1841C121.111 68.1841 121.647 67.8085 121.647 66.8311V64.3756H121.064V66.8985C121.064 67.5581 120.789 67.8037 120.354 67.8037C119.96 67.8037 119.655 67.563 119.655 66.8985V64.3756H119.077ZM126.111 67.7098C125.938 67.766 125.756 67.7936 125.574 67.7917C124.951 67.7917 124.375 67.4137 124.375 66.263C124.375 65.1122 125.012 64.7222 125.559 64.7222C125.734 64.7171 125.908 64.7432 126.073 64.7993L126.204 64.4358C125.999 64.3644 125.783 64.3326 125.567 64.3419C124.764 64.3419 123.762 64.8234 123.762 66.3015C123.762 67.5798 124.472 68.172 125.474 68.172C125.721 68.181 125.968 68.1468 126.204 68.0709L126.111 67.7098ZM130.235 67.7098C130.061 67.766 129.879 67.7936 129.697 67.7917C129.074 67.7917 128.499 67.4137 128.499 66.263C128.499 65.1122 129.136 64.7222 129.683 64.7222C129.857 64.7171 130.031 64.7432 130.197 64.7993L130.327 64.4358C130.122 64.3644 129.906 64.3326 129.69 64.3419C128.885 64.3419 127.885 64.8234 127.885 66.3015C127.885 67.5798 128.596 68.172 129.598 68.172C129.845 68.181 130.091 68.1468 130.327 68.0709L130.235 67.7098ZM134.214 65.9885H132.932V64.7487H134.292V64.3756H132.35V68.1383H134.389V67.7652H132.932V66.352H134.214V65.9885ZM136.215 68.0107C136.49 68.1211 136.784 68.1759 137.08 68.172C137.892 68.172 138.513 67.7652 138.513 67.1176C138.513 66.6987 138.24 66.352 137.624 66.0343C137.151 65.7767 136.876 65.6322 136.876 65.2567C136.876 65.0015 137.113 64.7222 137.61 64.7222C137.819 64.7171 138.027 64.7607 138.217 64.8498L138.361 64.4815C138.137 64.3842 137.894 64.3366 137.65 64.3419C136.838 64.3419 136.3 64.7608 136.3 65.3313C136.3 65.8128 136.862 66.1667 137.264 66.3737C137.667 66.5807 137.939 66.8094 137.939 67.1561C137.939 67.5028 137.62 67.7917 137.089 67.7917C136.837 67.7903 136.588 67.7396 136.355 67.6424L136.225 68.0107H136.215ZM140.377 68.0107C140.652 68.1211 140.945 68.1759 141.241 68.172C142.053 68.172 142.662 67.7652 142.662 67.1176C142.662 66.6987 142.39 66.352 141.774 66.0343C141.3 65.7767 141.026 65.6322 141.026 65.2567C141.026 65.0015 141.262 64.7222 141.76 64.7222C141.969 64.7171 142.176 64.7607 142.366 64.8498L142.511 64.4815C142.286 64.3842 142.044 64.3366 141.8 64.3419C140.988 64.3419 140.45 64.7608 140.45 65.3313C140.45 65.8128 141.011 66.1667 141.414 66.3737C141.817 66.5807 142.089 66.8094 142.089 67.1561C142.089 67.5028 141.769 67.7917 141.239 67.7917C140.986 67.79 140.736 67.7394 140.502 67.6424L140.374 68.0107H140.377Z" fill="black"/>
<path fill-rule="evenodd" clip-rule="evenodd" d="M206.708 28.768C207.359 28.7676 207.996 28.9633 208.537 29.3306C209.079 29.6979 209.501 30.2202 209.751 30.8315C210 31.4428 210.066 32.1155 209.94 32.7647C209.813 33.414 209.5 34.0104 209.04 34.4787C208.58 34.9471 207.993 35.2662 207.355 35.3958C206.716 35.5254 206.054 35.4596 205.453 35.2067C204.851 34.9539 204.336 34.5254 203.974 33.9754C203.612 33.4253 203.418 32.7785 203.418 32.1167C203.419 31.23 203.766 30.38 204.383 29.7528C204.999 29.1256 205.835 28.7723 206.708 28.7704V28.768ZM206.708 29.2495C207.262 29.249 207.805 29.4156 208.266 29.7281C208.728 30.0407 209.088 30.4852 209.301 31.0056C209.514 31.526 209.571 32.0989 209.464 32.652C209.357 33.2052 209.092 33.7137 208.701 34.1135C208.31 34.5133 207.811 34.7863 207.267 34.8982C206.724 35.0101 206.16 34.9558 205.647 34.7422C205.133 34.5286 204.694 34.1652 204.384 33.6979C204.073 33.2306 203.906 32.6804 203.904 32.1167C203.905 31.3609 204.201 30.6364 204.726 30.1018C205.252 29.5671 205.964 29.2659 206.708 29.264V29.2495Z" fill="black"/>
<path fill-rule="evenodd" clip-rule="evenodd" d="M205.095 33.5395H205.618V31.5149H206.248V31.0334H204.477V31.5149H205.095V33.5395ZM208.496 33.5395H209.005L208.877 31.0406H208.188L207.951 31.876C207.875 32.1528 207.797 32.4826 207.733 32.7715H207.714C207.665 32.4802 207.591 32.1648 207.52 31.8784L207.283 31.0454H206.589L206.44 33.5443H206.914L206.954 32.5934C206.973 32.2828 206.983 31.8976 206.997 31.5606C207.051 31.8856 207.129 32.2419 207.205 32.538L207.442 33.5009H207.847L208.129 32.5259C208.217 32.2322 208.314 31.876 208.385 31.563C208.385 31.9265 208.397 32.2852 208.406 32.5885L208.442 33.5515L208.496 33.5395Z" fill="black"/>
</g>
<defs>
<clipPath id="clip0_820_309">
<rect width="210" height="67.3585" fill="white" transform="translate(0 0.820755)"/>
</clipPath>
</defs>
</svg>
