<svg width="16" height="17" viewBox="0 0 16 17" fill="none" xmlns="http://www.w3.org/2000/svg">
<path d="M15.6397 14.7171C15.3141 15.2529 14.8292 15.6734 14.2529 15.9197C13.6109 16.2918 12.8837 16.4916 12.1419 16.5C11.1089 16.4261 10.0986 16.1611 9.16237 15.7183C8.46915 15.4733 7.80302 15.1574 7.17453 14.7757C5.00823 13.3447 3.15519 11.4882 1.7279 9.31881C1.34507 8.69008 1.02787 8.02362 0.78131 7.32997C0.348718 6.39121 0.0842643 5.38375 0 4.35347C0.00813966 3.60976 0.2079 2.88073 0.579973 2.23684C0.831186 1.66454 1.2504 1.1822 1.78199 0.853821C2.28629 0.6515 2.82016 0.532689 3.36264 0.502052C3.44498 0.495229 3.52784 0.505463 3.60605 0.532118C3.84495 0.614799 4.09587 1.17101 4.20706 1.39651C4.57367 2.04292 4.94329 2.70136 5.29788 3.34025C5.47969 3.64091 5.82076 3.99869 5.82076 4.35347C5.81475 5.04498 3.7563 6.0642 3.7563 6.66552C3.83004 7.019 3.98031 7.35202 4.19654 7.64115C5.25549 9.61771 6.8764 11.2358 8.85435 12.2908C9.14277 12.5131 9.47766 12.6672 9.83399 12.7418C10.447 12.7418 11.4552 10.6823 12.1509 10.6823C12.501 10.6823 12.8631 11.0235 13.1591 11.2054C13.7976 11.5798 14.4557 11.9345 15.1018 12.2968C15.3287 12.4126 15.8876 12.6591 15.9658 12.8981C15.9926 12.9748 16.0039 13.0561 15.9988 13.1372C15.9642 13.6796 15.843 14.213 15.6397 14.7171Z" fill="#19337A"/>
</svg>
