<svg width="67" height="47" viewBox="0 0 67 47" fill="none" xmlns="http://www.w3.org/2000/svg">
<path d="M56.1273 42.5454C56.1273 42.5116 56.1102 42.4722 56.1016 42.4244C55.8352 40.938 55.0107 39.6047 53.7919 38.6893C52.2654 37.5466 51.1735 37.434 49.91 37.3045C48.8619 37.2247 47.8274 37.0215 46.8284 36.6994C46.737 36.6684 46.7627 36.66 46.7084 36.66C45.2667 35.8392 44.0805 34.6459 43.2781 33.2092C43.7155 33.2092 44.1585 33.2092 44.6045 33.1895C46.2539 33.1444 47.5374 32.6265 48.4178 31.6245C49.5269 30.372 49.6098 28.762 49.5955 28.1259C50.3416 27.9429 53.1744 27.2449 52.9772 22.415C52.9 20.4954 52.637 19.0374 51.6565 18.1085C51.03 17.5103 50.2111 17.146 49.3411 17.0784C49.6727 15.0405 50.2444 9.14101 46.6912 5.18641C43.5925 1.72719 41.2628 0.5 34.3794 0.5C29.4798 0.5 25.5407 1.94111 22.6593 4.7811C18.157 9.24234 17.8512 15.6063 17.8312 16.628C16.4505 16.7969 14.5553 17.7145 14.2437 20.4785C13.9578 23.0117 14.4381 25.2634 15.5586 26.6257C15.8857 27.0323 16.2933 27.3692 16.7567 27.616C17.2201 27.8628 17.7296 28.0142 18.2542 28.0612C19.1375 28.1456 20.058 28.1737 20.8927 28.1737C22.1819 28.1737 23.2624 28.1062 23.6826 28.078C24.5059 30.994 26.0981 34.4504 29.1682 36.2406C30.9358 37.2634 32.9313 37.8433 34.9797 37.9294C35.245 37.9294 35.4995 37.8256 35.6871 37.6408C35.8748 37.4561 35.9802 37.2055 35.9802 36.9442C35.9802 36.683 35.8748 36.4324 35.6871 36.2476C35.4995 36.0629 35.245 35.9591 34.9797 35.9591C33.2901 35.8764 31.6456 35.3936 30.1859 34.5518C25.3035 31.7005 24.8232 23.1158 24.8175 23.0314C24.6889 20.425 24.8175 14.0244 28.7423 10.8748C30.1757 9.68723 31.9535 8.97598 33.822 8.84266H33.8706C38.956 8.35853 40.9484 10.8467 41.7002 11.7812C41.7898 11.8929 41.8852 12 41.986 12.102C42.1679 12.2893 42.4177 12.398 42.6807 12.4043C42.9438 12.4107 43.1987 12.3141 43.3896 12.1358C43.4868 12.0465 43.5651 11.9391 43.62 11.8199C43.6748 11.7006 43.7051 11.5718 43.7091 11.4409C43.7131 11.3101 43.6907 11.1797 43.6432 11.0575C43.5957 10.9352 43.5241 10.8233 43.4325 10.7285C43.3953 10.6891 43.3467 10.6243 43.2838 10.5455C42.4262 9.49003 39.8535 6.28413 33.6933 6.86676H33.6447C31.3817 7.03046 29.2289 7.89333 27.4931 9.33241C25.1434 11.221 23.9371 13.9682 23.3425 16.6027H19.835C19.8665 15.6175 20.2295 9.97133 24.0971 6.16028C26.5784 3.71153 30.0401 2.47026 34.3794 2.47026C40.9341 2.47026 42.6321 3.63272 45.1991 6.49241C48.3578 10.0051 47.5602 15.7273 47.3201 17.0671H44.4844C44.2205 17.0671 43.9674 17.1697 43.78 17.3526C43.5926 17.5356 43.4862 17.784 43.4839 18.0438C43.4839 19.5243 43.8212 25.5364 43.4525 27C43.416 27.1452 43.4136 27.2966 43.4454 27.4429C43.4773 27.5891 43.5425 27.7263 43.6361 27.844C43.7298 27.9617 43.8495 28.0569 43.986 28.1223C44.1226 28.1877 44.2725 28.2217 44.4244 28.2216L47.6031 28.1737C47.6031 28.5228 47.5831 29.5811 46.9113 30.3382C46.4111 30.9012 45.6193 31.1826 44.5587 31.2192C42.7264 31.2699 40.9741 31.2192 39.5648 31.1882C38.8988 31.1714 38.3928 31.1601 37.9983 31.1573V28.3173C37.9983 28.056 37.8929 27.8054 37.7053 27.6207C37.5177 27.436 37.2632 27.3322 36.9978 27.3322C36.7325 27.3322 36.478 27.436 36.2904 27.6207C36.1027 27.8054 35.9973 28.056 35.9973 28.3173V32.2043C35.9962 32.3598 36.0325 32.5134 36.1033 32.6524C36.174 32.7915 36.2772 32.912 36.4043 33.0043C36.5315 33.0965 36.679 33.1578 36.8348 33.1832C36.9906 33.2085 37.1503 33.1972 37.3008 33.1501C37.5867 33.1163 38.6072 33.1501 39.5134 33.1501C40.005 33.1501 40.5653 33.1782 41.1685 33.1867C41.1685 33.2064 41.1685 33.2289 41.1885 33.2514C42.5206 36.7247 45.6964 38.4444 46.2539 38.5767C47.3735 38.9338 48.5313 39.1623 49.7041 39.2579C50.8247 39.3705 51.5022 39.4408 52.5799 40.2486C53.4165 40.8773 53.9762 41.7981 54.1435 42.8212C54.1578 42.886 54.1692 42.9423 54.1807 42.9901C54.2992 43.4946 54.3852 44.0061 54.4379 44.5213H12.7C13.1431 42.8015 14.5324 39.5816 18.7402 39.1143C24.6345 38.4585 27.5303 33.789 27.6017 33.6286C27.6906 33.3855 27.6786 33.1177 27.5684 32.8833C27.4581 32.6489 27.2586 32.4666 27.0129 32.376C26.7659 32.2855 26.4927 32.2937 26.2518 32.3989C26.0109 32.5041 25.8213 32.698 25.7237 32.939C25.6808 33.0516 23.1281 36.6402 18.5287 37.161C12.6657 37.814 10.7162 42.8578 10.5018 45.4361C10.4902 45.5716 10.5075 45.708 10.5528 45.8365C10.5981 45.965 10.6704 46.0827 10.7648 46.1819C10.8581 46.2823 10.9716 46.3624 11.0981 46.4172C11.2246 46.4719 11.3613 46.5001 11.4994 46.5H55.5013C55.7667 46.5 56.0211 46.3962 56.2088 46.2115C56.3964 46.0267 56.5018 45.7761 56.5018 45.5149C56.4832 44.5148 56.3577 43.5195 56.1273 42.5454ZM22.9966 18.5729C22.8048 20.0832 22.7455 21.6068 22.8194 23.1271C22.8866 24.1365 23.0203 25.1407 23.2196 26.1331C21.6288 26.237 20.0327 26.2304 18.4429 26.1134C18.1826 26.0911 17.9299 26.0155 17.701 25.8914C17.4721 25.7673 17.272 25.5975 17.1137 25.3929C16.3361 24.4556 16.0074 22.702 16.2332 20.7065C16.4734 18.5926 18.0827 18.5645 18.3972 18.5814L22.9966 18.5729ZM45.4277 26.2035C45.6793 25.0551 45.4277 20.273 45.4649 19.0374H49.0295C49.4992 19.0333 49.9513 19.2124 50.2873 19.5356C50.8161 20.0591 50.9848 21.0161 50.9876 22.308C51.0019 26.2035 49.4412 26.1275 49.1753 26.2035H45.4277Z" fill="#333333"/>
</svg>
