<svg width="22" height="25" viewBox="0 0 22 25" fill="none" xmlns="http://www.w3.org/2000/svg">
<path fill-rule="evenodd" clip-rule="evenodd" d="M1.43205 1.46462C-1.02469e-07 2.92879 0 5.28615 0 10V15C0 19.7138 -1.02469e-07 22.0712 1.43205 23.5354C2.86411 24.9996 5.16863 25 9.77768 25H12.2223C16.8314 25 19.1363 25 20.5679 23.5354C21.9996 22.0708 22 19.7138 22 15V10C22 5.28615 22 2.92879 20.5679 1.46462C19.1359 0.000439424 16.8314 0 12.2223 0H9.77768C5.16863 0 2.86368 -1.04799e-07 1.43205 1.46462ZM5.19442 7.50022C5.19442 7.25156 5.29101 7.01308 5.46293 6.83725C5.63485 6.66142 5.86802 6.56264 6.11116 6.56264H15.8888C16.132 6.56264 16.3652 6.66142 16.5371 6.83725C16.709 7.01308 16.8056 7.25156 16.8056 7.50022C16.8056 7.74888 16.709 7.98736 16.5371 8.16319C16.3652 8.33902 16.132 8.4378 15.8888 8.4378H6.11116C5.86802 8.4378 5.63485 8.33902 5.46293 8.16319C5.29101 7.98736 5.19442 7.74888 5.19442 7.50022ZM5.19442 12.5002C5.19414 12.3769 5.21764 12.2548 5.26359 12.1407C5.30953 12.0267 5.37701 11.9231 5.46217 11.8358C5.54732 11.7485 5.64848 11.6793 5.75984 11.632C5.8712 11.5848 5.99059 11.5604 6.11116 11.5604H15.8888C16.132 11.5604 16.3652 11.6592 16.5371 11.8351C16.709 12.0109 16.8056 12.2494 16.8056 12.498C16.8056 12.7467 16.709 12.9852 16.5371 13.161C16.3652 13.3368 16.132 13.4356 15.8888 13.4356H6.11116C5.8684 13.4356 5.63555 13.3371 5.46369 13.1618C5.29183 12.9864 5.19499 12.7485 5.19442 12.5002ZM6.11116 16.5626C5.86802 16.5626 5.63485 16.6614 5.46293 16.8372C5.29101 17.0131 5.19442 17.2516 5.19442 17.5002C5.19442 17.7489 5.29101 17.9874 5.46293 18.1632C5.63485 18.339 5.86802 18.4378 6.11116 18.4378H12.2223C12.4655 18.4378 12.6986 18.339 12.8705 18.1632C13.0425 17.9874 13.1391 17.7489 13.1391 17.5002C13.1391 17.2516 13.0425 17.0131 12.8705 16.8372C12.6986 16.6614 12.4655 16.5626 12.2223 16.5626H6.11116Z" fill="white"/>
</svg>
