<svg width="32" height="32" viewBox="0 0 32 32" fill="none" xmlns="http://www.w3.org/2000/svg">
<path fill-rule="evenodd" clip-rule="evenodd" d="M7.89467 3.91545e-06H24.1053C25.5237 -7.60845e-05 26.7458 -0.000140119 27.7245 0.131444C28.7733 0.272452 29.7787 0.590436 30.5941 1.40589C31.4096 2.22136 31.7275 3.22672 31.8686 4.27554C32.0001 5.25421 32.0001 6.47632 32 7.89472V17.7053C32.0001 19.1237 32.0001 20.3458 31.8686 21.3245C31.7275 22.3733 31.4096 23.3787 30.5941 24.1941C29.7787 25.0096 28.7733 25.3275 27.7245 25.4686C26.7458 25.6002 25.5237 25.6002 24.1053 25.6H17.6V28.8H24C24.8837 28.8 25.6 29.5163 25.6 30.4C25.6 31.2837 24.8837 32 24 32H8C7.11635 32 6.4 31.2837 6.4 30.4C6.4 29.5163 7.11635 28.8 8 28.8H14.4V25.6H7.89467C6.4763 25.6002 5.25419 25.6002 4.27554 25.4686C3.22672 25.3275 2.22136 25.0096 1.40589 24.1941C0.590436 23.3787 0.272452 22.3733 0.131444 21.3245C-0.000140119 20.3458 -7.60845e-05 19.1237 3.91545e-06 17.7053V7.89467C-7.60845e-05 6.47631 -0.000140119 5.2542 0.131444 4.27554C0.272452 3.22672 0.590436 2.22136 1.40589 1.40589C2.22136 0.590436 3.22672 0.272452 4.27554 0.131444C5.25419 -0.000140119 6.4763 -7.60845e-05 7.89467 3.91545e-06Z" fill="#8C8FC6"/>
</svg>
