<svg width="46" height="50" viewBox="0 0 46 50" fill="none" xmlns="http://www.w3.org/2000/svg">
<path d="M9.91667 25H2.08333C0.93274 25 0 25.9716 0 27.1701V47.8299C0 49.0284 0.93274 50 2.08333 50H9.91667C11.0673 50 12 49.0284 12 47.8299V27.1701C12 25.9716 11.0673 25 9.91667 25Z" fill="#68CEB1"/>
<path d="M26.9167 0H19.0833C17.9327 0 17 0.971604 17 2.17014V47.8299C17 49.0284 17.9327 50 19.0833 50H26.9167C28.0673 50 29 49.0284 29 47.8299V2.17014C29 0.971604 28.0673 0 26.9167 0Z" fill="#68CEB1"/>
<path d="M43.9167 17H36.0833C34.9327 17 34 17.9619 34 19.1484V47.8516C34 49.0381 34.9327 50 36.0833 50H43.9167C45.0673 50 46 49.0381 46 47.8516V19.1484C46 17.9619 45.0673 17 43.9167 17Z" fill="#68CEB1"/>
</svg>
