<svg width="39" height="39" viewBox="0 0 39 39" fill="none" xmlns="http://www.w3.org/2000/svg">
<path d="M19.5001 4.15308C17.5163 4.15308 15.8674 5.62571 15.5713 7.52779C16.7689 7.2874 18.0072 7.17261 19.2747 7.17261H19.7254C20.9928 7.17261 22.2311 7.28321 23.4289 7.52361C23.1328 5.62159 21.4838 4.15308 19.5001 4.15308Z" fill="#FE713D"/>
<path d="M19.7254 9.13538H19.2747C9.99946 9.13538 2.42432 16.6487 2.42432 25.924V29.0571H36.5757V25.924C36.5757 16.6486 29.0007 9.13538 19.7254 9.13538Z" fill="#FE713D"/>
<path d="M38.5094 32.358C38.4319 32.2465 38.2497 32.1396 38.0657 32.0481C37.7984 31.9152 37.4687 31.9343 37.1702 31.9343H1.47202C1.17348 31.9343 0.839336 31.9227 0.642523 32.1472C0.589299 32.2079 0.538574 32.2735 0.490624 32.3424C0.190202 32.7744 0 33.4188 0 34.1168C0 35.4197 0.659117 36.4954 1.47202 36.4954H37.528C38.341 36.4954 39 35.4274 39 34.1245C39.0001 33.4268 38.8099 32.7899 38.5094 32.358Z" fill="#FE713D"/>
</svg>
