<svg width="39" height="41" viewBox="0 0 39 41" fill="none" xmlns="http://www.w3.org/2000/svg">
<path fill-rule="evenodd" clip-rule="evenodd" d="M23.1512 0.312092C22.3911 9.16421e-08 21.4274 0 19.5 0C17.5726 0 16.6088 9.16421e-08 15.8488 0.312092C14.8352 0.728222 14.0299 1.52639 13.6101 2.53099C13.4184 2.9896 13.3434 3.52292 13.3141 4.30088C13.2709 5.44414 12.6794 6.50237 11.6798 7.07441C10.6802 7.64642 9.45982 7.62506 8.43936 7.09046C7.74494 6.72666 7.24145 6.52437 6.74492 6.45959C5.65723 6.31765 4.5572 6.60979 3.68685 7.27176C3.03407 7.76823 2.55221 8.59544 1.58853 10.2499C0.624836 11.9043 0.143002 12.7315 0.0356084 13.5401C-0.107604 14.6181 0.187154 15.7085 0.855018 16.5712C1.15985 16.965 1.58826 17.2958 2.25317 17.7099C3.23065 18.3188 3.8596 19.3559 3.85953 20.5C3.85947 21.6441 3.23055 22.681 2.25317 23.2896C1.58816 23.7039 1.15967 24.035 0.854813 24.4288C0.186949 25.2915 -0.107788 26.3817 0.0354034 27.4598C0.142797 28.2683 0.624651 29.0956 1.58832 30.75C2.55201 32.4044 3.03386 33.2317 3.68664 33.728C4.557 34.39 5.65702 34.6821 6.74471 34.5402C7.24122 34.4755 7.74467 34.2731 8.43903 33.9095C9.45958 33.3748 10.68 33.3535 11.6797 33.9254C12.6794 34.4976 13.2709 35.5558 13.3141 36.6993C13.3434 37.4771 13.4184 38.0105 13.6101 38.4691C14.0299 39.4736 14.8352 40.2718 15.8488 40.688C16.6088 41 17.5726 41 19.5 41C21.4274 41 22.3911 41 23.1512 40.688C24.1648 40.2718 24.97 39.4736 25.3898 38.4691C25.5815 38.0105 25.6566 37.4771 25.686 36.6991C25.7291 35.5558 26.3205 34.4976 27.3201 33.9254C28.3197 33.3533 29.5402 33.3748 30.5608 33.9095C31.2552 34.2731 31.7585 34.4753 32.255 34.54C33.3427 34.6821 34.4427 34.39 35.313 33.728C35.966 33.2315 36.4477 32.4044 37.4114 30.7498C38.3751 29.0954 38.8569 28.2683 38.9644 27.4598C39.1075 26.3817 38.8128 25.2913 38.145 24.4286C37.84 24.0348 37.4116 23.7037 36.7466 23.2896C35.7693 22.681 35.1404 21.6439 35.1404 20.4998C35.1404 19.3557 35.7693 18.319 36.7466 17.7104C37.4118 17.2961 37.8402 16.9652 38.1452 16.5712C38.813 15.7086 39.1077 14.6183 38.9646 13.5402C38.8571 12.7316 38.3753 11.9044 37.4116 10.25C36.4479 8.59559 35.9662 7.76837 35.3132 7.2719C34.4429 6.60994 33.3429 6.31779 32.2552 6.45973C31.7587 6.52451 31.2552 6.72679 30.561 7.09054C29.5404 7.62516 28.3199 7.64654 27.3203 7.07447C26.3207 6.50242 25.7291 5.4441 25.6858 4.30078C25.6564 3.52288 25.5815 2.98958 25.3898 2.53099C24.97 1.52639 24.1648 0.728222 23.1512 0.312092ZM19.5 26.65C22.9268 26.65 25.7047 23.8966 25.7047 20.5C25.7047 17.1034 22.9268 14.35 19.5 14.35C16.0731 14.35 13.2952 17.1034 13.2952 20.5C13.2952 23.8966 16.0731 26.65 19.5 26.65Z" fill="#DD9955"/>
</svg>
