<svg width="23" height="24" viewBox="0 0 23 24" fill="none" xmlns="http://www.w3.org/2000/svg">
<g clip-path="url(#clip0_820_177)">
<path d="M11.5 1.45836C9.4151 1.45836 7.37698 2.07662 5.64341 3.23495C3.90984 4.39329 2.55869 6.03967 1.76082 7.96591C0.962942 9.89215 0.754181 12.0117 1.16093 14.0566C1.56769 16.1015 2.57168 17.9798 4.04596 19.4541C5.52024 20.9284 7.39859 21.9324 9.44347 22.3391C11.4884 22.7459 13.6079 22.5371 15.5342 21.7393C17.4604 20.9414 19.1068 19.5902 20.2651 17.8567C21.4235 16.1231 22.0417 14.085 22.0417 12C22.0481 10.6139 21.7797 9.24025 21.2522 7.95841C20.7247 6.67658 19.9484 5.51195 18.9683 4.5318C17.9881 3.55165 16.8235 2.7754 15.5417 2.24788C14.2598 1.72036 12.8862 1.45202 11.5 1.45836ZM17.1063 15.3542C17.0201 15.4947 16.9008 15.6118 16.7588 15.6954C16.6167 15.7789 16.4563 15.8263 16.2917 15.8334C16.1217 15.8311 15.9557 15.7813 15.8125 15.6896L10.5417 12.5271V7.20836C10.5417 6.9542 10.6427 6.71044 10.8224 6.53072C11.0021 6.351 11.2459 6.25003 11.5 6.25003C11.7542 6.25003 11.998 6.351 12.1777 6.53072C12.3574 6.71044 12.4584 6.9542 12.4584 7.20836V11.4729L16.7709 14.0604C16.8814 14.1198 16.9785 14.2014 17.0561 14.3001C17.1336 14.3988 17.1899 14.5125 17.2214 14.634C17.2529 14.7555 17.2589 14.8822 17.2391 15.0061C17.2193 15.1301 17.1741 15.2486 17.1063 15.3542Z" fill="#DACD3B"/>
</g>
<defs>
<clipPath id="clip0_820_177">
<rect width="23" height="23" fill="white" transform="translate(0 0.5)"/>
</clipPath>
</defs>
</svg>
