<svg width="36" height="28" viewBox="0 0 36 28" fill="none" xmlns="http://www.w3.org/2000/svg">
<path d="M17.5 0C15.7327 0 14.2638 2.18186 14 5C15.0669 4.64384 16.17 4.47376 17.2992 4.47376H17.7007C18.8298 4.47376 19.9329 4.63763 21 4.99381C20.7362 2.17576 19.2672 0 17.5 0Z" fill="#FFA54A"/>
<path d="M17.7046 4H17.2955C8.87613 4 2 10.7886 2 19.1691V22H33V19.1691C33 10.7885 26.124 4 17.7046 4Z" fill="#FFA54A"/>
<path d="M35.5471 24.3723C35.4756 24.2746 35.3074 24.1808 35.1376 24.1006C34.8908 23.9841 34.5865 24.0008 34.311 24.0008H1.35879C1.08321 24.0008 0.774772 23.9907 0.593098 24.1875C0.543968 24.2407 0.497145 24.2982 0.452884 24.3587C0.175571 24.7374 0 25.3024 0 25.9144C0 27.0568 0.608416 28 1.35879 28H34.6412C35.3917 28 36 27.0636 36 25.9212C36.0001 25.3095 35.8245 24.751 35.5471 24.3723Z" fill="#FFA54A"/>
</svg>
