<svg width="22" height="22" viewBox="0 0 22 22" fill="none" xmlns="http://www.w3.org/2000/svg">
<path d="M20.1036 0.6083L22 4.4H0L1.8964 0.6083C1.98769 0.425611 2.12804 0.271944 2.30172 0.164508C2.47541 0.0570714 2.67557 0.000109063 2.8798 0H19.1202C19.3244 0.000109063 19.5246 0.0570714 19.6983 0.164508C19.872 0.271944 20.0123 0.425611 20.1036 0.6083ZM0 6.6H22V20.9C22 21.1917 21.8841 21.4715 21.6778 21.6778C21.4715 21.8841 21.1917 22 20.9 22H1.1C0.808262 22 0.528473 21.8841 0.322182 21.6778C0.115892 21.4715 0 21.1917 0 20.9V6.6ZM3.3 17.6C3.3 17.8917 3.41589 18.1715 3.62218 18.3778C3.82847 18.5841 4.10826 18.7 4.4 18.7H8.8C9.09174 18.7 9.37153 18.5841 9.57782 18.3778C9.78411 18.1715 9.9 17.8917 9.9 17.6C9.9 17.3083 9.78411 17.0285 9.57782 16.8222C9.37153 16.6159 9.09174 16.5 8.8 16.5H4.4C4.10826 16.5 3.82847 16.6159 3.62218 16.8222C3.41589 17.0285 3.3 17.3083 3.3 17.6Z" fill="#2ABEB2"/>
</svg>
