<svg width="36" height="36" viewBox="0 0 36 36" fill="none" xmlns="http://www.w3.org/2000/svg">
<g clip-path="url(#clip0_973_406)">
<path d="M18.0002 1.95833C14.8274 1.95833 11.7259 2.89915 9.0879 4.66184C6.44986 6.42452 4.39376 8.92988 3.1796 11.8611C1.96545 14.7923 1.64777 18.0178 2.26674 21.1296C2.88571 24.2413 4.41353 27.0997 6.657 29.3432C8.90047 31.5866 11.7588 33.1145 14.8706 33.7334C17.9824 34.3524 21.2078 34.0347 24.139 32.8206C27.0703 31.6064 29.5756 29.5503 31.3383 26.9123C33.101 24.2742 34.0418 21.1727 34.0418 18C34.0515 15.8907 33.6431 13.8003 32.8404 11.8497C32.0376 9.89909 30.8564 8.12683 29.3649 6.6353C27.8733 5.14377 26.1011 3.96251 24.1504 3.15976C22.1998 2.35701 20.1095 1.94867 18.0002 1.95833ZM26.5314 23.1042C26.4003 23.3179 26.2187 23.4962 26.0026 23.6233C25.7864 23.7505 25.5424 23.8226 25.2918 23.8333C25.0331 23.8299 24.7805 23.7542 24.5627 23.6146L16.5418 18.8021V10.7083C16.5418 10.3216 16.6955 9.95062 16.969 9.67713C17.2425 9.40364 17.6134 9.24999 18.0002 9.24999C18.3869 9.24999 18.7579 9.40364 19.0314 9.67713C19.3049 9.95062 19.4585 10.3216 19.4585 10.7083V17.1979L26.021 21.1354C26.1893 21.2258 26.337 21.35 26.455 21.5002C26.5729 21.6504 26.6586 21.8233 26.7065 22.0082C26.7545 22.1931 26.7636 22.3859 26.7335 22.5745C26.7034 22.7631 26.6346 22.9434 26.5314 23.1042Z" fill="#FF9933"/>
</g>
<defs>
<clipPath id="clip0_973_406">
<rect width="35" height="35" fill="white" transform="translate(0.5 0.5)"/>
</clipPath>
</defs>
</svg>
