<svg width="36" height="36" viewBox="0 0 36 36" fill="none" xmlns="http://www.w3.org/2000/svg">
<g clip-path="url(#clip0_973_423)">
<path d="M29.4844 4.875C30.3905 4.875 31.125 4.14048 31.125 3.23438V2.14062C31.125 1.23452 30.3905 0.5 29.4844 0.5H6.51562C5.60952 0.5 4.875 1.23452 4.875 2.14062V3.23438C4.875 4.14048 5.60952 4.875 6.51562 4.875C6.51562 11.0933 10.003 16.3412 14.7763 18C10.003 19.6588 6.51562 24.9067 6.51562 31.125C5.60952 31.125 4.875 31.8595 4.875 32.7656V33.8594C4.875 34.7655 5.60952 35.5 6.51562 35.5H29.4844C30.3905 35.5 31.125 34.7655 31.125 33.8594V32.7656C31.125 31.8595 30.3905 31.125 29.4844 31.125C29.4844 24.9067 25.997 19.6588 21.2237 18C25.997 16.3412 29.4844 11.0933 29.4844 4.875ZM18 14.7188C14.0497 14.7188 10.8906 10.1716 10.8906 4.875H25.1094C25.1094 10.2033 21.93 14.7188 18 14.7188Z" fill="#7F559F"/>
</g>
<defs>
<clipPath id="clip0_973_423">
<rect width="35" height="35" fill="white" transform="translate(0.5 0.5)"/>
</clipPath>
</defs>
</svg>
