<svg width="46" height="28" viewBox="0 0 46 28" fill="none" xmlns="http://www.w3.org/2000/svg">
<g clip-path="url(#clip0_937_1756)">
<path fill-rule="evenodd" clip-rule="evenodd" d="M10.2609 14.7582C12.2738 14.7582 12.7758 14.7582 14.7887 14.7582C14.7793 14.7582 16.929 15.1248 16.929 16.3448V25.1353C16.929 27.3504 15.2593 27.372 14.2857 27.372C12.3082 27.372 13.5876 19.907 9.22108 20.0465C3.86777 20.2173 6.09504 27.372 3.9879 27.372C2.31513 27.3681 0.998231 26.9166 0.985126 24.8218V2.52826C0.950043 -0.0054726 5.50847 -0.0054726 6.0474 2.52826C6.0474 5.21242 6.0474 7.89713 6.0474 10.5813C6.64831 14.4553 8.43575 14.664 10.2609 14.758V14.7582Z" fill="white"/>
<path fill-rule="evenodd" clip-rule="evenodd" d="M11.1823 8.25096V8.25055C11.1823 6.94581 12.2497 5.87817 13.5547 5.87817H33.9324C35.2374 5.87817 36.3048 6.94594 36.3048 8.25055V8.25096C36.3048 9.55571 35.2374 10.6233 33.9324 10.6233H27.7756C26.5117 11.1683 25.5475 11.8974 25.5211 13.2036V23.5308C25.5434 24.6404 27.0379 25.5253 27.6918 26.0037C28.067 26.2785 28.1018 27.3628 27.1695 27.372H25.5213H23.7049H23.3269H21.5105H19.8623C18.93 27.3629 18.9647 26.2785 19.3401 26.0037C19.9939 25.5253 21.4883 24.6404 21.5107 23.5308V13.2036C21.4842 11.8974 20.52 11.1683 19.2562 10.6233H13.5552C12.2502 10.6233 11.1829 9.55557 11.1829 8.25096H11.1823Z" fill="white"/>
<path fill-rule="evenodd" clip-rule="evenodd" d="M36.724 14.7582C34.7111 14.7582 34.2091 14.7582 32.1962 14.7582C32.2056 14.7582 30.0558 15.1248 30.0558 16.3448V25.1353C30.0558 27.3504 31.7256 27.372 32.6992 27.372C34.6767 27.372 33.3973 19.907 37.7638 20.0465C43.1171 20.2173 40.8898 27.372 42.997 27.372C44.6697 27.3681 45.9866 26.9166 45.9997 24.8218V2.52826C46.0348 -0.0054726 41.4764 -0.0054726 40.9375 2.52826C40.9375 5.21242 40.9375 7.89713 40.9375 10.5813C40.3366 14.4553 38.5491 14.664 36.724 14.758V14.7582Z" fill="white"/>
</g>
<defs>
<clipPath id="clip0_937_1756">
<rect width="45.0153" height="26.744" fill="white" transform="translate(0.984741 0.628021)"/>
</clipPath>
</defs>
</svg>
