<svg width="36" height="28" viewBox="0 0 36 28" fill="none" xmlns="http://www.w3.org/2000/svg">
<path fill-rule="evenodd" clip-rule="evenodd" d="M9.95633 14.7581C11.9693 14.7581 12.4712 14.7581 14.4842 14.7581C14.4748 14.7581 16.6245 15.1248 16.6245 16.3448V25.1352C16.6245 27.3504 14.9547 27.3719 13.9811 27.3719C12.0037 27.3719 13.283 19.907 8.91655 20.0465C3.56324 20.2173 5.79051 27.3719 3.68336 27.3719C2.01059 27.3681 0.693696 26.9165 0.680591 24.8218V2.52823C0.645508 -0.00550311 5.20393 -0.00550311 5.74287 2.52823C5.74287 5.21239 5.74287 7.8971 5.74287 10.5813C6.34378 14.4552 8.13122 14.664 9.95633 14.758V14.7581Z" fill="white"/>
<path fill-rule="evenodd" clip-rule="evenodd" d="M10.8777 8.25093V8.25052C10.8777 6.94578 11.9451 5.87814 13.2501 5.87814H33.6278C34.9328 5.87814 36.0002 6.94591 36.0002 8.25052V8.25093C36.0002 9.55568 34.9328 10.6233 33.6278 10.6233H27.471C26.2071 11.1683 25.2429 11.8973 25.2166 13.2036V23.5307C25.2388 24.6404 26.7333 25.5252 27.3872 26.0037C27.7625 26.2785 27.7973 27.3628 26.8649 27.3719H25.2167H23.4003H23.0223H21.206H19.5578C18.6254 27.3629 18.6601 26.2785 19.0355 26.0037C19.6894 25.5252 21.1837 24.6404 21.2061 23.5307V13.2036C21.1796 11.8973 20.2155 11.1683 18.9517 10.6233H13.2507C11.9457 10.6233 10.8783 9.55554 10.8783 8.25093H10.8777Z" fill="white"/>
</svg>
