<svg width="23" height="23" viewBox="0 0 23 23" fill="none" xmlns="http://www.w3.org/2000/svg">
<path d="M23 11.5C23 13.7745 22.3255 15.9979 21.0619 17.8891C19.7983 19.7802 18.0022 21.2542 15.9009 22.1246C13.7995 22.995 11.4872 23.2228 9.25646 22.779C7.02568 22.3353 4.97658 21.24 3.36828 19.6317C1.75997 18.0234 0.664704 15.9743 0.220974 13.7435C-0.222756 11.5128 0.00498276 9.20049 0.87539 7.09914C1.7458 4.99779 3.21978 3.20174 5.11095 1.9381C7.00211 0.674463 9.22552 9.1769e-08 11.5 9.1769e-08C13.0103 -0.000190705 14.5058 0.297136 15.9011 0.874997C17.2964 1.45286 18.5642 2.29993 19.6322 3.36785C20.7001 4.43576 21.5471 5.70358 22.125 7.09891C22.7029 8.49424 23.0002 9.98974 23 11.5ZM15.9638 14.0478C15.9625 13.2586 15.6757 12.4965 15.1561 11.9024L15.1547 11.8995C14.8109 11.508 14.4002 11.1809 13.9418 10.9335L13.9374 10.9306C13.54 10.7243 13.117 10.5714 12.6795 10.4759H12.6766C12.297 10.395 11.9099 10.3546 11.5218 10.3554C11.2907 10.3568 11.0599 10.3388 10.8318 10.3016C10.5828 10.2602 10.3411 10.1829 10.1143 10.0721L10.1113 10.0707C9.90396 9.96482 9.72053 9.81748 9.57244 9.6378L9.57099 9.63635C9.41788 9.4573 9.32848 9.23252 9.31679 8.99722C9.32815 8.80409 9.39081 8.61748 9.4983 8.45663C9.60579 8.29577 9.75423 8.16649 9.92832 8.0821C10.4169 7.79516 10.9741 7.64606 11.5407 7.65069C11.7324 7.66611 11.9224 7.69819 12.1086 7.74656L12.1798 7.76108C12.4164 7.81804 12.6466 7.89882 12.8669 8.00221C13.072 8.09534 13.2593 8.22365 13.4203 8.38133C13.5253 8.4957 13.6524 8.58763 13.7939 8.65157C13.9354 8.71551 14.0884 8.75014 14.2437 8.75337C14.3989 8.75661 14.5532 8.72838 14.6973 8.67039C14.8413 8.61239 14.9721 8.52584 15.0819 8.41594C15.1916 8.30604 15.2779 8.17507 15.3356 8.03092C15.3933 7.88676 15.4213 7.73242 15.4178 7.57717C15.4143 7.42193 15.3794 7.269 15.3152 7.12761C15.251 6.98621 15.1588 6.85928 15.0443 6.75445C14.6868 6.39972 14.2686 6.11192 13.8096 5.9047C13.444 5.73573 13.0619 5.60526 12.6693 5.51541H12.6679L12.6562 5.5125V4.37078C12.6617 4.21636 12.6361 4.06242 12.5808 3.91814C12.5255 3.77386 12.4416 3.6422 12.3343 3.53101C12.227 3.41983 12.0984 3.3314 11.9562 3.271C11.814 3.2106 11.6611 3.17948 11.5065 3.17948C11.352 3.17948 11.1991 3.2106 11.0569 3.271C10.9146 3.3314 10.786 3.41983 10.6787 3.53101C10.5714 3.6422 10.4876 3.77386 10.4323 3.91814C10.377 4.06242 10.3513 4.21636 10.3568 4.37078V5.47909C9.77082 5.60133 9.21051 5.82447 8.7009 6.13856C8.19852 6.43012 7.77971 6.84617 7.48484 7.34662C7.18996 7.84706 7.02897 8.41503 7.01737 8.99577C7.02611 9.76048 7.2974 10.499 7.78578 11.0875C8.1399 11.5228 8.58256 11.8778 9.08438 12.129C9.51596 12.3438 9.97712 12.4931 10.4527 12.572C10.806 12.6305 11.1637 12.6591 11.5218 12.6577C11.7462 12.6565 11.9702 12.6789 12.19 12.7245C12.4257 12.7763 12.6537 12.8583 12.8683 12.9685C13.0777 13.0846 13.2654 13.236 13.4232 13.4159C13.5759 13.5918 13.6609 13.8164 13.6629 14.0493C13.6629 14.1902 13.6629 14.5199 13.1036 14.8816C12.6075 15.1811 12.0388 15.3388 11.4593 15.3377C11.2184 15.3256 10.9786 15.2965 10.7418 15.2505C10.5128 15.2016 10.2894 15.1296 10.075 15.0356C9.87341 14.946 9.69466 14.8095 9.55646 14.6375C9.45853 14.5201 9.33818 14.4234 9.20245 14.3531C9.06671 14.2827 8.91831 14.2401 8.76592 14.2278C8.61353 14.2154 8.46021 14.2336 8.31492 14.2812C8.16963 14.3287 8.03528 14.4048 7.91972 14.5049C7.80416 14.605 7.70972 14.7272 7.64191 14.8642C7.57411 15.0012 7.53429 15.1504 7.52479 15.303C7.5153 15.4556 7.53632 15.6085 7.58661 15.7529C7.63691 15.8973 7.71548 16.0302 7.81774 16.1439C8.19628 16.5948 8.67816 16.9476 9.22237 17.1723C9.58381 17.3267 9.96071 17.4422 10.3467 17.5165H10.3568V18.6539C10.3513 18.8083 10.377 18.9623 10.4323 19.1066C10.4876 19.2508 10.5714 19.3825 10.6787 19.4937C10.786 19.6049 10.9146 19.6933 11.0569 19.7537C11.1991 19.8141 11.352 19.8452 11.5065 19.8452C11.6611 19.8452 11.814 19.8141 11.9562 19.7537C12.0984 19.6933 12.227 19.6049 12.3343 19.4937C12.4416 19.3825 12.5255 19.2508 12.5808 19.1066C12.6361 18.9623 12.6617 18.8083 12.6562 18.6539V17.5064C13.2595 17.3771 13.835 17.1415 14.3558 16.8106C14.8409 16.5304 15.2444 16.1283 15.5264 15.6443C15.8084 15.1602 15.9592 14.6109 15.9638 14.0507V14.0478Z" fill="#8DC166"/>
</svg>
